<svg version="1.1" id="Layer_1" xmlns="http://www.w3.org/2000/svg" x="0" y="0" width="1400" height="980" style="enable-background:new 0 0 1400 980" xml:space="preserve"><style>.st0{fill:#e83f2a}.st1{fill:#eb6427}.st2{fill:#ed7423}.st4{fill:#f8b032}.st5{fill:#f7a525}.st6{fill:#f49f22}.st7{fill:#fed061}.st8{fill:#f6bc45}.st10{fill:#f49221}.st11{fill:#f08122}.st13{fill:#e85325}.st14{fill:#ec6824}.st23{fill:#382c2d}.st24{fill:#f48f23}.st25{fill:#fbfdfd}.st26{fill:#070807}.st27{fill:#58595b}.st30{fill:#8d3030}.st31{fill:#76292a}</style><g id="XMLID_13136_"><g id="XMLID_6475_"><path id="XMLID_7420_" class="st0" d="m331.5 710.1-12.9-85.6-92.9-38.3z"/><path id="XMLID_7419_" class="st1" d="m427.2 776-145.9 18.9 50.2-84.8z"/><path id="XMLID_7418_" class="st1" d="m394.6 611.9-63.1 98.2-12.9-85.6z"/><path id="XMLID_7417_" class="st2" d="m427.2 776-95.7-65.9 63.1-98.2z"/><path id="XMLID_7416_" style="fill:#f29321" d="m334.5 446.3 97.5-108-116-78.7z"/><path id="XMLID_7415_" class="st2" d="m391.7 570.4-57.2-124.1-65.9 17.7z"/><path id="XMLID_7414_" class="st4" d="m509 403.1-77-64.8 49.1-66z"/><path id="XMLID_7413_" class="st5" d="M334.5 446.3 509 403.1l-77-64.8z"/><path id="XMLID_7412_" class="st6" d="M391.7 570.4 509 403.1l-174.5 43.2z"/><path id="XMLID_7411_" class="st7" d="m633.2 196.8 132.4-.3-66.4-120.6z"/><path id="XMLID_7410_" class="st8" d="m617.1 333.3 16.1-136.5-74.8-6.2z"/><path id="XMLID_7409_" class="st7" d="m782.1 333.1-16.5-136.6 74.8-6.4z"/><path id="XMLID_7347_" class="st5" d="m617.1 333.3 148.5-136.8 16.5 136.6z"/><path id="XMLID_7346_" class="st4" d="m633.2 196.8-16.1 136.5 148.5-136.8z"/><path id="XMLID_7345_" class="st4" d="m814.4 424.9-114.8-91.7 82.5-.1z"/><path id="XMLID_7344_" style="fill:#f18d21" d="m585.1 425.2 114.5-92-82.5.1z"/><path id="XMLID_7343_" class="st5" d="m814.4 424.9-229.3.3 114.5-92z"/><path id="XMLID_7342_" class="st4" d="m391.7 570.4 193.4-145.2-76.1-22.1z"/><path id="XMLID_7341_" class="st10" d="M814.4 424.9 585.5 693.7l-.4-268.5z"/><path id="XMLID_7318_" class="st5" d="m391.7 570.4 193.8 123.3-.4-268.5z"/><path id="XMLID_6923_" class="st11" d="m427.2 776 158.3-82.3-193.8-123.3 2.9 41.5z"/><path id="XMLID_6922_" style="fill:#d12527" d="M459.7 843.3 427.2 776l-65.9 95.7z"/><path id="XMLID_6921_" class="st0" d="m519.8 816-92.6-40 32.5 67.3z"/><path id="XMLID_6920_" class="st13" d="M585.5 693.7 519.8 816l-92.6-40z"/><path id="XMLID_6739_" class="st2" d="m585.5 693.7 114.8 112.8-180.5 9.5z"/><path id="XMLID_6737_" class="st13" d="m802.2 647.3 78.7 168.1-180.6-8.9z"/><path id="XMLID_6736_" class="st14" d="m585.5 693.7 216.7-46.4-101.9 159.2z"/><path id="XMLID_6735_" class="st2" d="m814.4 424.9-12.2 222.4-216.7 46.4z"/><path id="XMLID_6734_" class="st7" d="m967.2 337.5 97.9 107.6 17.9-186.7z"/><path id="XMLID_6733_" class="st7" d="m890.5 402.5 76.7-65-49.3-65.9z"/><path id="XMLID_6732_" class="st8" d="m1065.1 445.1-56.8 124.3L1131 462.6z"/><path id="XMLID_6731_" class="st8" d="m814.4 424.9 51.9 63.7 24.2-86.1z"/><path id="XMLID_6730_" class="st8" d="m1065.1 445.1-174.6-42.6 76.7-65z"/><path id="XMLID_6729_" class="st4" d="M1008.3 569.4 890.5 402.5l174.6 42.6z"/><path id="XMLID_6728_" class="st5" d="m866.3 488.6 142 80.8-117.8-166.9z"/><path id="XMLID_6727_" class="st4" d="m802.2 647.3 64.1-158.7-51.9-63.7z"/><path id="XMLID_6726_" class="st6" d="m1008.3 569.4-206.1 77.9 64.1-158.7z"/><path id="XMLID_6725_" class="st10" d="m1005.5 610.9-84.4-8.5 87.2-33z"/><path id="XMLID_6724_" class="st14" d="m880.9 815.4 40.2-213-118.9 44.9z"/><path id="XMLID_6723_" class="st13" d="m973.4 775.1-32.3 67.5 98.5 28.1z"/><path id="XMLID_6722_" class="st14" d="m880.9 815.4 92.5-40.3-32.3 67.5z"/><path id="XMLID_6721_" class="st14" d="m1068.9 708.9-95.5 66.2 146 18.5z"/><path id="XMLID_6720_" class="st4" d="m1081.5 623.3-12.6 85.6 105.4-124.2z"/><path id="XMLID_6719_" style="fill:#f8a728" d="m1005.5 610.9 63.4 98 12.6-85.6z"/><path id="XMLID_6486_" class="st11" d="m921.1 602.4 84.4 8.5-124.6 204.5z"/><path id="XMLID_6484_" class="st14" d="M973.4 775.1 940.9 717l-60 98.4z"/><path id="XMLID_6483_" style="fill:#e78024" d="m1005.5 610.9-32.1 164.2 95.5-66.2z"/><path id="XMLID_6482_" class="st2" d="m940.9 717 32.5 58.1 32.1-164.2z"/><path id="XMLID_6481_" class="st13" d="m646.9 913 47.5-106.5-33.7 1.4z"/><path id="XMLID_6480_" class="st0" d="m655.1 921.2-8.2-8.2 47.5-106.5z"/></g><linearGradient id="XMLID_2_" gradientUnits="userSpaceOnUse" x1="937.264" y1="926.508" x2="937.264" y2="263.468"><stop offset="0" style="stop-color:#ed1f24"/><stop offset=".063" style="stop-color:#ed1f24;stop-opacity:.9374"/><stop offset="1" style="stop-color:#ed1f24;stop-opacity:0"/></linearGradient><path id="XMLID_11153_" d="m1024.4 734-60 41.5v-512h-49.7v241.4l-64.5-44.6-5.1 2.9 34.8 29.2s-.2-.2 2.9 3.7l-21.3 1.4.5.7 19.7 1.6 9.8 7.5c8.6 11.1 19.5 25 23.2 30v380c0 12.4 49.7 12.4 49.7 0V805.1c10.2-13.3 30.3-39 30.3-39l34.8-29.2-5.1-2.9z" style="opacity:.92;fill:url(#XMLID_2_)"/><linearGradient id="XMLID_3_" gradientUnits="userSpaceOnUse" x1="508.964" y1="917.677" x2="508.964" y2="254.637"><stop offset="0" style="stop-color:#ed1f24"/><stop offset=".063" style="stop-color:#ed1f24;stop-opacity:.9374"/><stop offset="1" style="stop-color:#ed1f24;stop-opacity:0"/></linearGradient><path id="XMLID_11226_" d="m596.1 725.2-60 41.5v-512h-49.7V496l-64.5-44.6-5.1 2.9 34.8 29.2s-.2-.2 2.9 3.7l-21.3 1.4.5.7 19.7 1.6 9.8 7.5c8.6 11.1 19.5 25 23.2 30v380c0 12.4 49.7 12.4 49.7 0V796.3c10.2-13.3 30.3-39 30.3-39l34.8-29.2-5.1-2.9z" style="opacity:.92;fill:url(#XMLID_3_)"/><linearGradient id="XMLID_4_" gradientUnits="userSpaceOnUse" x1="381.34" y1="890.777" x2="381.34" y2="227.738"><stop offset="0" style="stop-color:#ed1f24"/><stop offset=".063" style="stop-color:#ed1f24;stop-opacity:.9374"/><stop offset="1" style="stop-color:#ed1f24;stop-opacity:0"/></linearGradient><path id="XMLID_11227_" d="m468.4 562.7-60 41.5V227.8h-49.7v419.6l-64.5-44.6-5.1 2.9 34.8 29.2s-.2-.2 2.9 3.7l-21.3 1.4.5.7 19.7 1.6 9.8 7.5c8.6 11.1 19.5 25 23.2 30V881.6c0 12.4 49.7 12.4 49.7 0V633.7c10.2-13.3 30.3-39 30.3-39l34.8-29.2-5.1-2.8z" style="opacity:.92;fill:url(#XMLID_4_)"/><linearGradient id="XMLID_5_" gradientUnits="userSpaceOnUse" x1="1081.503" y1="890.777" x2="1081.503" y2="227.738"><stop offset="0" style="stop-color:#ed1f24"/><stop offset=".063" style="stop-color:#ed1f24;stop-opacity:.9374"/><stop offset="1" style="stop-color:#ed1f24;stop-opacity:0"/></linearGradient><path id="XMLID_11228_" d="m1168.6 562.7-60 41.5V227.8h-49.7v419.6l-64.5-44.6-5.1 2.9 34.8 29.2s-.2-.2 2.9 3.7l-21.3 1.4.5.7 19.7 1.6 9.8 7.5c8.6 11.1 19.5 25 23.2 30V881.6c0 12.4 49.7 12.4 49.7 0V633.7c10.2-13.3 30.3-39 30.3-39l34.8-29.2-5.1-2.8z" style="opacity:.92;fill:url(#XMLID_5_)"/><linearGradient id="XMLID_6_" gradientUnits="userSpaceOnUse" x1="700" y1="78.228" x2="700" y2="646.825"><stop offset="0" style="stop-color:#000"/><stop offset="1" style="stop-color:#000;stop-opacity:0"/></linearGradient><path id="XMLID_11666_" style="fill:url(#XMLID_6_)" d="M0 0h1400v980H0z"/><g id="XMLID_11250_"><path id="XMLID_6912_" d="M735.3 482.5h-70.6c-52.8 0-101-19.5-137.8-51.8h-1v321.5c0 96.2 77.9 174.1 174.1 174.1 96.2 0 174.1-77.9 174.1-174.1V430.7h-1c-36.8 32.2-85 51.8-137.8 51.8z" style="fill:#4a3b3c"/><path id="XMLID_6911_" class="st23" d="M781 523.6c-43.2 0-78.5 33.7-81 76.3-2.5-42.6-37.8-76.3-81-76.3-44.8 0-81.2 36.3-81.2 81.2 0 44.8 36.3 81.2 81.2 81.2 43.2 0 78.5-33.7 81-76.3 2.5 42.6 37.8 76.3 81 76.3 44.8 0 81.2-36.3 81.2-81.2 0-44.9-36.4-81.2-81.2-81.2z"/><circle id="XMLID_6910_" class="st24" cx="619" cy="595" r="81.2"/><circle id="XMLID_6909_" class="st24" cx="781" cy="595" r="81.2"/><circle id="XMLID_6908_" class="st25" cx="781" cy="595" r="65.7"/><circle id="XMLID_6907_" class="st26" cx="773.8" cy="568.6" r="27.5"/><circle id="XMLID_6906_" class="st27" cx="773.8" cy="561.2" r="8.2"/><circle id="XMLID_6905_" class="st25" cx="618.3" cy="595" r="65.7"/><circle id="XMLID_6904_" class="st26" cx="629.8" cy="570.1" r="27.5"/><circle id="XMLID_6903_" class="st27" cx="629.8" cy="561.3" r="8.2"/><path id="XMLID_6902_" d="M723.6 655.8 700 700.5l-23.6-44.8c-1.3-2.5-1.8-5.6-1-8.4 5.6-20 43.6-20 49.2 0 .8 2.9.3 5.9-1 8.5z" style="fill:#fff200"/><path id="XMLID_6901_" d="M711.7 651.5c-3.2 1.1-20.1 1.1-23.3 0-3.7-.8-.6-12.8 11.7-13 12.2.2 15.3 12.1 11.6 13z" style="fill:#f9ee89"/><g id="XMLID_6886_"><path id="XMLID_6900_" class="st23" d="M760.7 731.7c8.8 0 17.7-3.3 26.4-10 1-.8 1.2-2.3.5-3.3-.8-1-2.3-1.2-3.3-.5-15.9 12-31.3 12-47.1 0-1-.8-2.5-.6-3.3.5-.8 1-.6 2.5.5 3.3 8.7 6.7 17.5 10 26.3 10z"/><path id="XMLID_6899_" class="st23" d="M698.3 731.7c8.8 0 17.7-3.3 26.4-10 1-.8 1.2-2.3.5-3.3-.8-1-2.3-1.2-3.3-.5-15.9 12-31.3 12-47.1 0-1-.8-2.5-.6-3.3.5-.8 1-.6 2.5.5 3.3 8.6 6.7 17.4 10 26.3 10z"/><path id="XMLID_6898_" class="st23" d="M635.8 731.7c8.8 0 17.7-3.3 26.4-10 1-.8 1.2-2.3.5-3.3-.8-1-2.3-1.2-3.3-.5-15.9 12-31.3 12-47.1 0-1-.8-2.5-.6-3.3.5-.8 1-.6 2.5.5 3.3 8.6 6.7 17.5 10 26.3 10z"/><path id="XMLID_6897_" class="st23" d="M765.1 761.1c-.8 1-.6 2.5.5 3.3 8.8 6.7 17.6 10 26.4 10 8.8 0 17.7-3.3 26.4-10 1-.8 1.2-2.3.5-3.3-.8-1-2.3-1.2-3.3-.5-15.9 12-31.3 12-47.1 0-1.2-.8-2.7-.6-3.4.5z"/><path id="XMLID_6896_" class="st23" d="M702.6 761.1c-.8 1-.6 2.5.5 3.3 8.8 6.7 17.6 10 26.4 10 8.8 0 17.7-3.3 26.4-10 1-.8 1.2-2.3.5-3.3-.8-1-2.3-1.2-3.3-.5-15.9 12-31.3 12-47.1 0-1.1-.8-2.6-.6-3.4.5z"/><path id="XMLID_6895_" class="st23" d="M640.1 761.1c-.8 1-.6 2.5.5 3.3 8.8 6.7 17.6 10 26.4 10 8.8 0 17.7-3.3 26.4-10 1-.8 1.2-2.3.5-3.3-.8-1-2.3-1.2-3.3-.5-15.9 12-31.3 12-47.1 0-1.1-.8-2.6-.6-3.4.5z"/><path id="XMLID_6894_" class="st23" d="M604.6 774.4c8.8 0 17.7-3.3 26.4-10 1-.8 1.2-2.3.5-3.3-.8-1-2.3-1.2-3.3-.5-15.9 12-31.3 12-47.1 0-1-.8-2.5-.6-3.3.5-.8 1-.6 2.5.5 3.3 8.6 6.7 17.5 10 26.3 10z"/><path id="XMLID_6893_" class="st23" d="M789.6 803.8c-.8-1-2.3-1.2-3.3-.5-15.9 12-31.3 12-47.1 0-1-.8-2.5-.6-3.3.5-.8 1-.6 2.5.5 3.3 8.8 6.7 17.6 10 26.4 10 8.8 0 17.7-3.3 26.4-10 1-.8 1.2-2.3.4-3.3z"/><path id="XMLID_6892_" class="st23" d="M727.1 803.8c-.8-1-2.3-1.2-3.3-.5-15.9 12-31.3 12-47.1 0-1-.8-2.5-.6-3.3.5-.8 1-.6 2.5.5 3.3 8.8 6.7 17.6 10 26.4 10 8.8 0 17.7-3.3 26.4-10 1-.8 1.2-2.3.4-3.3z"/><path id="XMLID_6891_" class="st23" d="M664.7 803.8c-.8-1-2.3-1.2-3.3-.5-15.9 12-31.3 12-47.1 0-1-.8-2.5-.6-3.3.5-.8 1-.6 2.5.5 3.3 8.8 6.7 17.6 10 26.4 10 8.8 0 17.7-3.3 26.4-10 1-.8 1.2-2.3.4-3.3z"/><path id="XMLID_6890_" class="st23" d="M815.5 846c-15.9 12-31.3 12-47.1 0-1-.8-2.5-.6-3.3.5-.8 1-.6 2.5.5 3.3 8.8 6.7 17.6 10 26.4 10 8.8 0 17.7-3.3 26.4-10 1-.8 1.2-2.3.5-3.3-.9-1.1-2.4-1.3-3.4-.5z"/><path id="XMLID_6889_" class="st23" d="M753.1 846c-15.9 12-31.3 12-47.1 0-1-.8-2.5-.6-3.3.5-.8 1-.6 2.5.5 3.3 8.8 6.7 17.6 10 26.4 10 8.8 0 17.7-3.3 26.4-10 1-.8 1.2-2.3.5-3.3-.9-1.1-2.4-1.3-3.4-.5z"/><path id="XMLID_6888_" class="st23" d="M690.6 846c-15.9 12-31.3 12-47.1 0-1-.8-2.5-.6-3.3.5-.8 1-.6 2.5.5 3.3 8.8 6.7 17.6 10 26.4 10 8.8 0 17.7-3.3 26.4-10 1-.8 1.2-2.3.5-3.3-.9-1.1-2.4-1.3-3.4-.5z"/><path id="XMLID_6887_" class="st23" d="M628.1 846c-15.9 12-31.3 12-47.1 0-1-.8-2.5-.6-3.3.5-.8 1-.6 2.5.5 3.3 8.8 6.7 17.6 10 26.4 10 8.8 0 17.7-3.3 26.4-10 1-.8 1.2-2.3.5-3.3-.8-1.1-2.3-1.3-3.4-.5z"/></g><path id="XMLID_6885_" class="st30" d="M476.7 747.6c25.4-71.3 56.1-95.9 80.1-87.4 24 8.5 32.2 47 6.9 118.3-25.4 71.3-98.7 139.9-98.7 139.9s-13.7-99.5 11.7-170.8z"/><path id="XMLID_6884_" class="st30" d="M923.3 747.6c-25.4-71.3-56.1-95.9-80.1-87.4-24 8.5-32.2 47-6.9 118.3 25.4 71.3 98.7 139.9 98.7 139.9s13.7-99.5-11.7-170.8z"/><path id="XMLID_11511_" class="st31" d="M556.7 698.7c-24-8.5-54.7 16.1-80.1 87.4-10 28.2-14 60.8-15.1 89.9.9 25.2 3.3 42.5 3.3 42.5s73.4-68.6 98.7-139.9c7.1-20 11.6-37.5 13.8-52.4-3-14.8-10.3-23.9-20.6-27.5z"/><path id="XMLID_11510_" class="st31" d="M843.3 698.7c-10.2 3.6-17.6 12.7-20.7 27.4 2.2 14.9 6.7 32.4 13.8 52.4 25.4 71.3 98.7 139.9 98.7 139.9s2.3-17.2 3.3-42.5c-1.1-29.1-5.1-61.7-15.1-89.9-25.4-71.2-56.1-95.8-80-87.3z"/></g><path id="XMLID_11618_" class="st23" d="M0 0v980h1400V0H0zm1119.4 793.6-146.1-18.4 66.2 95.5-98.5-28.1-60.1-27.1-180.6-8.9-6.1.3L655 921.4l-8.2-8.3 13.7-104.4-140.7 7.3-60.1 27.3-98.4 28.4 65.9-95.7-146 18.9 50.3-84.8-105.8-123.9 92.9 38.4 75.9-12.6-2.9-41.5-123-106.5 65.9-17.7L316 259.6l116 78.7 49.1-66L509 403.1l76.1 22.1 32-91.9-58.7-142.7 74.8 6.2 66-120.9 66.4 120.7 74.8-6.4-58.3 142.9 32.3 91.8 76-22.3 27.4-130.9 49.3 65.9 115.8-79.1-17.9 186.7 66 17.5-122.8 106.8-2.7 41.5 76 12.4 92.8-38.7-105.4 124.2 50.5 84.7z"/></g></svg>