<?xml version="1.0" standalone="no"?>
<!DOCTYPE svg PUBLIC "-//W3C//DTD SVG 20010904//EN"
 "http://www.w3.org/TR/2001/REC-SVG-20010904/DTD/svg10.dtd">
<svg version="1.0" xmlns="http://www.w3.org/2000/svg"
 width="128.000000pt" height="128.000000pt" viewBox="0 0 128.000000 128.000000"
 preserveAspectRatio="xMidYMid meet">

<g transform="translate(0.000000,128.000000) scale(0.100000,-0.100000)"
fill="#000000" stroke="none">
<path d="M913 1068 c-11 -13 -75 -97 -143 -188 -68 -91 -126 -168 -129 -172
-4 -4 -73 68 -153 160 -186 212 -193 219 -213 202 -8 -7 -15 -21 -15 -31 0
-14 128 -168 312 -375 18 -21 17 -23 -134 -223 -124 -166 -150 -206 -141 -219
12 -19 33 -26 49 -14 5 4 72 89 149 190 76 100 141 182 145 182 4 0 74 -77
155 -170 84 -97 156 -170 165 -170 10 0 23 7 30 15 18 21 19 20 -251 326 l-58
65 155 204 c85 113 154 207 154 210 0 12 -24 30 -40 30 -9 0 -26 -10 -37 -22z"/>
</g>
</svg>
