<?xml version="1.0" encoding="utf-8"?>
<!-- Generator: Adobe Illustrator 19.0.0, SVG Export Plug-In . SVG Version: 6.00 Build 0)  -->
<svg version="1.1" id="Layer_1" xmlns="http://www.w3.org/2000/svg" xmlns:xlink="http://www.w3.org/1999/xlink" x="0px" y="0px"
	 width="1400px" height="980px" viewBox="0 0 1400 980" style="enable-background:new 0 0 1400 980;" xml:space="preserve">
<style type="text/css">
	.st0{fill:#E83F2A;}
	.st1{fill:#EB6427;}
	.st2{fill:#ED7423;}
	.st3{fill:#F29321;}
	.st4{fill:#F8B032;}
	.st5{fill:#F7A525;}
	.st6{fill:#F49F22;}
	.st7{fill:#FED061;}
	.st8{fill:#F6BC45;}
	.st9{fill:#F18D21;}
	.st10{fill:#F49221;}
	.st11{fill:#F08122;}
	.st12{fill:#D12527;}
	.st13{fill:#E85325;}
	.st14{fill:#EC6824;}
	.st15{fill:#F8A728;}
	.st16{fill:#E78024;}
	.st17{opacity:0.92;fill:url(#XMLID_2_);}
	.st18{opacity:0.92;fill:url(#XMLID_3_);}
	.st19{opacity:0.92;fill:url(#XMLID_4_);}
	.st20{opacity:0.92;fill:url(#XMLID_5_);}
	.st21{fill:url(#XMLID_6_);}
	.st22{fill:#4A3B3C;}
	.st23{fill:#382C2D;}
	.st24{fill:#F48F23;}
	.st25{fill:#FBFDFD;}
	.st26{fill:#070807;}
	.st27{fill:#58595B;}
	.st28{fill:#FFF200;}
	.st29{fill:#F9EE89;}
	.st30{fill:#8D3030;}
	.st31{fill:#76292A;}
</style>
<g id="XMLID_13136_">
	<g id="XMLID_6475_">
		<polygon id="XMLID_7420_" class="st0" points="331.5,710.1 318.6,624.5 225.7,586.2 		"/>
		<polygon id="XMLID_7419_" class="st1" points="427.2,776 281.3,794.9 331.5,710.1 		"/>
		<polygon id="XMLID_7418_" class="st1" points="394.6,611.9 331.5,710.1 318.6,624.5 		"/>
		<polygon id="XMLID_7417_" class="st2" points="427.2,776 331.5,710.1 394.6,611.9 		"/>
		<polygon id="XMLID_7416_" class="st3" points="334.5,446.3 432,338.3 316,259.6 		"/>
		<polygon id="XMLID_7415_" class="st2" points="391.7,570.4 334.5,446.3 268.6,464 		"/>
		<polygon id="XMLID_7414_" class="st4" points="509,403.1 432,338.3 481.1,272.3 		"/>
		<polygon id="XMLID_7413_" class="st5" points="334.5,446.3 509,403.1 432,338.3 		"/>
		<polygon id="XMLID_7412_" class="st6" points="391.7,570.4 509,403.1 334.5,446.3 		"/>
		<polygon id="XMLID_7411_" class="st7" points="633.2,196.8 765.6,196.5 699.2,75.9 		"/>
		<polygon id="XMLID_7410_" class="st8" points="617.1,333.3 633.2,196.8 558.4,190.6 		"/>
		<polygon id="XMLID_7409_" class="st7" points="782.1,333.1 765.6,196.5 840.4,190.1 		"/>
		<polygon id="XMLID_7347_" class="st5" points="617.1,333.3 765.6,196.5 782.1,333.1 		"/>
		<polygon id="XMLID_7346_" class="st4" points="633.2,196.8 617.1,333.3 765.6,196.5 		"/>
		<polygon id="XMLID_7345_" class="st4" points="814.4,424.9 699.6,333.2 782.1,333.1 		"/>
		<polygon id="XMLID_7344_" class="st9" points="585.1,425.2 699.6,333.2 617.1,333.3 		"/>
		<polygon id="XMLID_7343_" class="st5" points="814.4,424.9 585.1,425.2 699.6,333.2 		"/>
		<polygon id="XMLID_7342_" class="st4" points="391.7,570.4 585.1,425.2 509,403.1 		"/>
		<polygon id="XMLID_7341_" class="st10" points="814.4,424.9 585.5,693.7 585.1,425.2 		"/>
		<polygon id="XMLID_7318_" class="st5" points="391.7,570.4 585.5,693.7 585.1,425.2 		"/>
		<polygon id="XMLID_6923_" class="st11" points="427.2,776 585.5,693.7 391.7,570.4 394.6,611.9 		"/>
		<polygon id="XMLID_6922_" class="st12" points="459.7,843.3 427.2,776 361.3,871.7 		"/>
		<polygon id="XMLID_6921_" class="st0" points="519.8,816 427.2,776 459.7,843.3 		"/>
		<polygon id="XMLID_6920_" class="st13" points="585.5,693.7 519.8,816 427.2,776 		"/>
		<polygon id="XMLID_6739_" class="st2" points="585.5,693.7 700.3,806.5 519.8,816 		"/>
		<polygon id="XMLID_6737_" class="st13" points="802.2,647.3 880.9,815.4 700.3,806.5 		"/>
		<polygon id="XMLID_6736_" class="st14" points="585.5,693.7 802.2,647.3 700.3,806.5 		"/>
		<polygon id="XMLID_6735_" class="st2" points="814.4,424.9 802.2,647.3 585.5,693.7 		"/>
		<polygon id="XMLID_6734_" class="st7" points="967.2,337.5 1065.1,445.1 1083,258.4 		"/>
		<polygon id="XMLID_6733_" class="st7" points="890.5,402.5 967.2,337.5 917.9,271.6 		"/>
		<polygon id="XMLID_6732_" class="st8" points="1065.1,445.1 1008.3,569.4 1131,462.6 		"/>
		<polygon id="XMLID_6731_" class="st8" points="814.4,424.9 866.3,488.6 890.5,402.5 		"/>
		<polygon id="XMLID_6730_" class="st8" points="1065.1,445.1 890.5,402.5 967.2,337.5 		"/>
		<polygon id="XMLID_6729_" class="st4" points="1008.3,569.4 890.5,402.5 1065.1,445.1 		"/>
		<polygon id="XMLID_6728_" class="st5" points="866.3,488.6 1008.3,569.4 890.5,402.5 		"/>
		<polygon id="XMLID_6727_" class="st4" points="802.2,647.3 866.3,488.6 814.4,424.9 		"/>
		<polygon id="XMLID_6726_" class="st6" points="1008.3,569.4 802.2,647.3 866.3,488.6 		"/>
		<polygon id="XMLID_6725_" class="st10" points="1005.5,610.9 921.1,602.4 1008.3,569.4 		"/>
		<polygon id="XMLID_6724_" class="st14" points="880.9,815.4 921.1,602.4 802.2,647.3 		"/>
		<polygon id="XMLID_6723_" class="st13" points="973.4,775.1 941.1,842.6 1039.6,870.7 		"/>
		<polygon id="XMLID_6722_" class="st14" points="880.9,815.4 973.4,775.1 941.1,842.6 		"/>
		<polygon id="XMLID_6721_" class="st14" points="1068.9,708.9 973.4,775.1 1119.4,793.6 		"/>
		<polygon id="XMLID_6720_" class="st4" points="1081.5,623.3 1068.9,708.9 1174.3,584.7 		"/>
		<polygon id="XMLID_6719_" class="st15" points="1005.5,610.9 1068.9,708.9 1081.5,623.3 		"/>
		<polygon id="XMLID_6486_" class="st11" points="921.1,602.4 1005.5,610.9 880.9,815.4 		"/>
		<polygon id="XMLID_6484_" class="st14" points="973.4,775.1 940.9,717 880.9,815.4 		"/>
		<polygon id="XMLID_6483_" class="st16" points="1005.5,610.9 973.4,775.1 1068.9,708.9 		"/>
		<polygon id="XMLID_6482_" class="st2" points="940.9,717 973.4,775.1 1005.5,610.9 		"/>
		<polygon id="XMLID_6481_" class="st13" points="646.9,913 694.4,806.5 660.7,807.9 		"/>
		<polygon id="XMLID_6480_" class="st0" points="655.1,921.2 646.9,913 694.4,806.5 		"/>
	</g>
	<linearGradient id="XMLID_2_" gradientUnits="userSpaceOnUse" x1="937.2642" y1="926.5076" x2="937.2642" y2="263.4679">
		<stop  offset="0" style="stop-color:#ED1F24"/>
		<stop  offset="6.255370e-002" style="stop-color:#ED1F24;stop-opacity:0.9374"/>
		<stop  offset="1" style="stop-color:#ED1F24;stop-opacity:0"/>
	</linearGradient>
	<path id="XMLID_11153_" class="st17" d="M1024.4,734l-60,41.5V673.5v-217v-193h-49.7v241.4l-64.5-44.6l-5.1,2.9l34.8,29.2
		c0,0-0.2-0.2,2.9,3.7l-21.3,1.4l0.5,0.7l19.7,1.6l9.8,7.5c8.6,11.1,19.5,25,23.2,30v22.2v357.8c0,12.4,49.7,12.4,49.7,0V805.1
		c10.2-13.3,30.3-39,30.3-39l34.8-29.2L1024.4,734z"/>
	<linearGradient id="XMLID_3_" gradientUnits="userSpaceOnUse" x1="508.9644" y1="917.6769" x2="508.9644" y2="254.6373">
		<stop  offset="0" style="stop-color:#ED1F24"/>
		<stop  offset="6.255370e-002" style="stop-color:#ED1F24;stop-opacity:0.9374"/>
		<stop  offset="1" style="stop-color:#ED1F24;stop-opacity:0"/>
	</linearGradient>
	<path id="XMLID_11226_" class="st18" d="M596.1,725.2l-60,41.5V664.7v-217v-193h-49.7V496l-64.5-44.6l-5.1,2.9l34.8,29.2
		c0,0-0.2-0.2,2.9,3.7l-21.3,1.4l0.5,0.7l19.7,1.6l9.8,7.5c8.6,11.1,19.5,25,23.2,30v22.2v357.8c0,12.4,49.7,12.4,49.7,0V796.3
		c10.2-13.3,30.3-39,30.3-39l34.8-29.2L596.1,725.2z"/>
	<linearGradient id="XMLID_4_" gradientUnits="userSpaceOnUse" x1="381.3399" y1="890.7771" x2="381.3399" y2="227.7375">
		<stop  offset="0" style="stop-color:#ED1F24"/>
		<stop  offset="6.255370e-002" style="stop-color:#ED1F24;stop-opacity:0.9374"/>
		<stop  offset="1" style="stop-color:#ED1F24;stop-opacity:0"/>
	</linearGradient>
	<path id="XMLID_11227_" class="st19" d="M468.4,562.7l-60,41.5V502.1v-81.3v-193h-49.7v419.6l-64.5-44.6l-5.1,2.9l34.8,29.2
		c0,0-0.2-0.2,2.9,3.7l-21.3,1.4l0.5,0.7l19.7,1.6l9.8,7.5c8.6,11.1,19.5,25,23.2,30v22.2v179.6c0,12.4,49.7,12.4,49.7,0V633.7
		c10.2-13.3,30.3-39,30.3-39l34.8-29.2L468.4,562.7z"/>
	<linearGradient id="XMLID_5_" gradientUnits="userSpaceOnUse" x1="1081.5034" y1="890.7771" x2="1081.5034" y2="227.7375">
		<stop  offset="0" style="stop-color:#ED1F24"/>
		<stop  offset="6.255370e-002" style="stop-color:#ED1F24;stop-opacity:0.9374"/>
		<stop  offset="1" style="stop-color:#ED1F24;stop-opacity:0"/>
	</linearGradient>
	<path id="XMLID_11228_" class="st20" d="M1168.6,562.7l-60,41.5V502.1v-81.3v-193h-49.7v419.6l-64.5-44.6l-5.1,2.9l34.8,29.2
		c0,0-0.2-0.2,2.9,3.7l-21.3,1.4l0.5,0.7l19.7,1.6l9.8,7.5c8.6,11.1,19.5,25,23.2,30v22.2v179.6c0,12.4,49.7,12.4,49.7,0V633.7
		c10.2-13.3,30.3-39,30.3-39l34.8-29.2L1168.6,562.7z"/>
	<linearGradient id="XMLID_6_" gradientUnits="userSpaceOnUse" x1="699.9999" y1="78.228" x2="699.9999" y2="646.8253">
		<stop  offset="0" style="stop-color:#000000"/>
		<stop  offset="1" style="stop-color:#000000;stop-opacity:0"/>
	</linearGradient>
	<rect id="XMLID_11666_" x="0" y="0" class="st21" width="1400" height="980"/>
	<g id="XMLID_11250_">
		<path id="XMLID_6912_" class="st22" d="M735.3,482.5h-70.6c-52.8,0-101-19.5-137.8-51.8h-1v321.5c0,96.2,77.9,174.1,174.1,174.1h0
			c96.2,0,174.1-77.9,174.1-174.1V430.7h-1C836.3,462.9,788.1,482.5,735.3,482.5z"/>
		<path id="XMLID_6911_" class="st23" d="M781,523.6c-43.2,0-78.5,33.7-81,76.3c-2.5-42.6-37.8-76.3-81-76.3
			c-44.8,0-81.2,36.3-81.2,81.2c0,44.8,36.3,81.2,81.2,81.2c43.2,0,78.5-33.7,81-76.3c2.5,42.6,37.8,76.3,81,76.3
			c44.8,0,81.2-36.3,81.2-81.2C862.2,559.9,825.8,523.6,781,523.6z"/>
		<circle id="XMLID_6910_" class="st24" cx="619" cy="595" r="81.2"/>
		<circle id="XMLID_6909_" class="st24" cx="781" cy="595" r="81.2"/>
		<circle id="XMLID_6908_" class="st25" cx="781" cy="595" r="65.7"/>
		<circle id="XMLID_6907_" class="st26" cx="773.8" cy="568.6" r="27.5"/>
		<circle id="XMLID_6906_" class="st27" cx="773.8" cy="561.2" r="8.2"/>
		<circle id="XMLID_6905_" class="st25" cx="618.3" cy="595" r="65.7"/>
		<circle id="XMLID_6904_" class="st26" cx="629.8" cy="570.1" r="27.5"/>
		<circle id="XMLID_6903_" class="st27" cx="629.8" cy="561.3" r="8.2"/>
		<path id="XMLID_6902_" class="st28" d="M723.6,655.8L700,700.5l-23.6-44.8c-1.3-2.5-1.8-5.6-1-8.4c5.6-20,43.6-20,49.2,0
			C725.4,650.2,724.9,653.2,723.6,655.8z"/>
		<path id="XMLID_6901_" class="st29" d="M711.7,651.5c-3.2,1.1-20.1,1.1-23.3,0c-3.7-0.8-0.6-12.8,11.7-13
			C712.3,638.7,715.4,650.6,711.7,651.5z"/>
		<g id="XMLID_6886_">
			<path id="XMLID_6900_" class="st23" d="M760.7,731.7c8.8,0,17.7-3.3,26.4-10c1-0.8,1.2-2.3,0.5-3.3c-0.8-1-2.3-1.2-3.3-0.5
				c-15.9,12-31.3,12-47.1,0c-1-0.8-2.5-0.6-3.3,0.5c-0.8,1-0.6,2.5,0.5,3.3C743.1,728.4,751.9,731.7,760.7,731.7z"/>
			<path id="XMLID_6899_" class="st23" d="M698.3,731.7c8.8,0,17.7-3.3,26.4-10c1-0.8,1.2-2.3,0.5-3.3c-0.8-1-2.3-1.2-3.3-0.5
				c-15.9,12-31.3,12-47.1,0c-1-0.8-2.5-0.6-3.3,0.5c-0.8,1-0.6,2.5,0.5,3.3C680.6,728.4,689.4,731.7,698.3,731.7z"/>
			<path id="XMLID_6898_" class="st23" d="M635.8,731.7c8.8,0,17.7-3.3,26.4-10c1-0.8,1.2-2.3,0.5-3.3c-0.8-1-2.3-1.2-3.3-0.5
				c-15.9,12-31.3,12-47.1,0c-1-0.8-2.5-0.6-3.3,0.5c-0.8,1-0.6,2.5,0.5,3.3C618.1,728.4,627,731.7,635.8,731.7z"/>
			<path id="XMLID_6897_" class="st23" d="M765.1,761.1c-0.8,1-0.6,2.5,0.5,3.3c8.8,6.7,17.6,10,26.4,10c8.8,0,17.7-3.3,26.4-10
				c1-0.8,1.2-2.3,0.5-3.3c-0.8-1-2.3-1.2-3.3-0.5c-15.9,12-31.3,12-47.1,0C767.3,759.8,765.8,760,765.1,761.1z"/>
			<path id="XMLID_6896_" class="st23" d="M702.6,761.1c-0.8,1-0.6,2.5,0.5,3.3c8.8,6.7,17.6,10,26.4,10c8.8,0,17.7-3.3,26.4-10
				c1-0.8,1.2-2.3,0.5-3.3c-0.8-1-2.3-1.2-3.3-0.5c-15.9,12-31.3,12-47.1,0C704.9,759.8,703.4,760,702.6,761.1z"/>
			<path id="XMLID_6895_" class="st23" d="M640.1,761.1c-0.8,1-0.6,2.5,0.5,3.3c8.8,6.7,17.6,10,26.4,10c8.8,0,17.7-3.3,26.4-10
				c1-0.8,1.2-2.3,0.5-3.3c-0.8-1-2.3-1.2-3.3-0.5c-15.9,12-31.3,12-47.1,0C642.4,759.8,640.9,760,640.1,761.1z"/>
			<path id="XMLID_6894_" class="st23" d="M604.6,774.4c8.8,0,17.7-3.3,26.4-10c1-0.8,1.2-2.3,0.5-3.3c-0.8-1-2.3-1.2-3.3-0.5
				c-15.9,12-31.3,12-47.1,0c-1-0.8-2.5-0.6-3.3,0.5c-0.8,1-0.6,2.5,0.5,3.3C586.9,771.1,595.8,774.4,604.6,774.4z"/>
			<path id="XMLID_6893_" class="st23" d="M789.6,803.8c-0.8-1-2.3-1.2-3.3-0.5c-15.9,12-31.3,12-47.1,0c-1-0.8-2.5-0.6-3.3,0.5
				c-0.8,1-0.6,2.5,0.5,3.3c8.8,6.7,17.6,10,26.4,10c8.8,0,17.7-3.3,26.4-10C790.2,806.3,790.4,804.8,789.6,803.8z"/>
			<path id="XMLID_6892_" class="st23" d="M727.1,803.8c-0.8-1-2.3-1.2-3.3-0.5c-15.9,12-31.3,12-47.1,0c-1-0.8-2.5-0.6-3.3,0.5
				c-0.8,1-0.6,2.5,0.5,3.3c8.8,6.7,17.6,10,26.4,10c8.8,0,17.7-3.3,26.4-10C727.7,806.3,727.9,804.8,727.1,803.8z"/>
			<path id="XMLID_6891_" class="st23" d="M664.7,803.8c-0.8-1-2.3-1.2-3.3-0.5c-15.9,12-31.3,12-47.1,0c-1-0.8-2.5-0.6-3.3,0.5
				c-0.8,1-0.6,2.5,0.5,3.3c8.8,6.7,17.6,10,26.4,10c8.8,0,17.7-3.3,26.4-10C665.3,806.3,665.5,804.8,664.7,803.8z"/>
			<path id="XMLID_6890_" class="st23" d="M815.5,846c-15.9,12-31.3,12-47.1,0c-1-0.8-2.5-0.6-3.3,0.5c-0.8,1-0.6,2.5,0.5,3.3
				c8.8,6.7,17.6,10,26.4,10c8.8,0,17.7-3.3,26.4-10c1-0.8,1.2-2.3,0.5-3.3C818,845.4,816.5,845.2,815.5,846z"/>
			<path id="XMLID_6889_" class="st23" d="M753.1,846c-15.9,12-31.3,12-47.1,0c-1-0.8-2.5-0.6-3.3,0.5c-0.8,1-0.6,2.5,0.5,3.3
				c8.8,6.7,17.6,10,26.4,10c8.8,0,17.7-3.3,26.4-10c1-0.8,1.2-2.3,0.5-3.3C755.6,845.4,754.1,845.2,753.1,846z"/>
			<path id="XMLID_6888_" class="st23" d="M690.6,846c-15.9,12-31.3,12-47.1,0c-1-0.8-2.5-0.6-3.3,0.5c-0.8,1-0.6,2.5,0.5,3.3
				c8.8,6.7,17.6,10,26.4,10c8.8,0,17.7-3.3,26.4-10c1-0.8,1.2-2.3,0.5-3.3C693.1,845.4,691.6,845.2,690.6,846z"/>
			<path id="XMLID_6887_" class="st23" d="M628.1,846c-15.9,12-31.3,12-47.1,0c-1-0.8-2.5-0.6-3.3,0.5c-0.8,1-0.6,2.5,0.5,3.3
				c8.8,6.7,17.6,10,26.4,10c8.8,0,17.7-3.3,26.4-10c1-0.8,1.2-2.3,0.5-3.3C630.7,845.4,629.2,845.2,628.1,846z"/>
		</g>
		<path id="XMLID_6885_" class="st30" d="M476.7,747.6c25.4-71.3,56.1-95.9,80.1-87.4c24,8.5,32.2,47,6.9,118.3
			c-25.4,71.3-98.7,139.9-98.7,139.9S451.3,818.9,476.7,747.6z"/>
		<path id="XMLID_6884_" class="st30" d="M923.3,747.6c-25.4-71.3-56.1-95.9-80.1-87.4c-24,8.5-32.2,47-6.9,118.3
			c25.4,71.3,98.7,139.9,98.7,139.9S948.7,818.9,923.3,747.6z"/>
		<path id="XMLID_11511_" class="st31" d="M556.7,698.7c-24-8.5-54.7,16.1-80.1,87.4c-10,28.2-14,60.8-15.1,89.9
			c0.9,25.2,3.3,42.5,3.3,42.5s73.4-68.6,98.7-139.9c7.1-20,11.6-37.5,13.8-52.4C574.3,711.4,567,702.3,556.7,698.7z"/>
		<path id="XMLID_11510_" class="st31" d="M843.3,698.7c-10.2,3.6-17.6,12.7-20.7,27.4c2.2,14.9,6.7,32.4,13.8,52.4
			c25.4,71.3,98.7,139.9,98.7,139.9s2.3-17.2,3.3-42.5c-1.1-29.1-5.1-61.7-15.1-89.9C897.9,714.8,867.2,690.2,843.3,698.7z"/>
	</g>
	<path id="XMLID_11618_" class="st23" d="M0,0v980h1400V0H0z M1119.4,793.6l-146.1-18.4l66.2,95.5l-98.5-28.1l-60.1-27.1l-180.6-8.9
		l-6.1,0.3l-39.2,114.5l-8.2-8.3l13.7-104.4L519.8,816l-60.1,27.3l-98.4,28.4l65.9-95.7l-146,18.9l50.3-84.8L225.7,586.2l92.9,38.4
		l75.9-12.6l-2.9-41.5L268.6,464l65.9-17.7L316,259.6l116,78.7l49.1-66L509,403.1l76.1,22.1l32-91.9l-58.7-142.7l74.8,6.2l66-120.9
		l66.4,120.7l74.8-6.4l-58.3,142.9l32.3,91.8l76-22.3l27.4-130.9l49.3,65.9l115.8-79.1l-17.9,186.7l66,17.5l-122.8,106.8l-2.7,41.5
		l76,12.4l92.8-38.7l-105.4,124.2L1119.4,793.6z"/>
</g>
</svg>
